<?xml version="1.0" standalone="no"?>
<!DOCTYPE svg PUBLIC "-//W3C//DTD SVG 20010904//EN"
 "http://www.w3.org/TR/2001/REC-SVG-20010904/DTD/svg10.dtd">
<svg version="1.0" xmlns="http://www.w3.org/2000/svg"
 width="1000.000000pt" height="1000.000000pt" viewBox="0 0 1000.000000 1000.000000"
 preserveAspectRatio="xMidYMid meet">
<metadata>
Created by potrace 1.14, written by Peter Selinger 2001-2017
</metadata>
<g transform="translate(0.000000,1000.000000) scale(0.100000,-0.100000)"
fill="#000000" stroke="none">
<path d="M7681 9762 c-44 -22 -70 -57 -77 -104 -9 -50 1 -81 37 -123 59 -67
158 -68 217 -1 108 123 -32 302 -177 228z"/>
<path d="M6818 9745 c-131 -49 -211 -163 -211 -300 -1 -220 210 -374 416 -306
86 29 147 83 188 167 27 55 32 76 32 132 -2 128 -69 239 -179 293 -60 29 -187
37 -246 14z"/>
<path d="M6527 7760 c-214 -54 -322 -283 -223 -478 33 -66 88 -118 156 -151
45 -21 69 -26 135 -26 137 0 240 63 301 185 24 47 28 67 29 140 0 72 -4 94
-27 142 -64 137 -232 222 -371 188z"/>
<path d="M6960 6871 c-301 -74 -1239 -343 -1520 -437 l-75 -25 -111 -202 c-61
-111 -224 -404 -361 -652 -138 -247 -369 -664 -513 -925 -144 -261 -293 -529
-330 -595 -37 -66 -150 -271 -252 -455 -102 -184 -291 -526 -420 -760 -130
-234 -349 -629 -487 -878 -138 -250 -251 -456 -251 -458 0 -13 -75 -120 -113
-161 -70 -77 -113 -103 -168 -103 -36 0 -55 6 -76 24 -26 23 -28 29 -28 105
l0 81 392 779 c335 665 1360 2713 1829 3653 117 234 139 286 121 279 -62 -24
-223 -98 -307 -142 -108 -55 -219 -141 -253 -197 -13 -20 -90 -165 -172 -322
-81 -157 -171 -330 -200 -385 -29 -55 -88 -170 -133 -255 -326 -630 -514 -994
-572 -1105 -245 -470 -787 -1518 -856 -1655 -182 -364 -244 -586 -244 -875 0
-304 90 -531 291 -736 208 -211 508 -339 794 -339 411 0 775 241 1063 703 24
37 97 172 164 300 357 687 496 952 543 1042 128 244 396 759 485 930 45 88 99
192 120 230 21 39 104 198 185 355 81 157 194 373 250 480 56 107 137 263 180
345 43 83 104 200 135 260 32 61 117 225 190 365 406 782 602 1157 764 1466
63 121 123 237 131 257 l15 37 -47 -1 c-27 0 -100 -13 -163 -28z m-1430 -1081
c19 -5 52 -24 74 -42 154 -127 55 -370 -144 -356 -77 5 -130 41 -165 111 -42
86 -29 167 40 233 57 55 124 74 195 54z"/>
</g>
</svg>
